<svg width="16" height="16" viewBox="0 0 16 16" fill="none" xmlns="http://www.w3.org/2000/svg">
<g clip-path="url(#clip0_37_1638)">
<path d="M12.1644 10.5846C11.6416 10.0686 10.9891 10.0686 10.4697 10.5846C10.0734 10.9775 9.67722 11.3704 9.28767 11.77C9.18112 11.8798 9.09122 11.9031 8.96137 11.8299C8.705 11.69 8.43198 11.5768 8.18559 11.4237C7.0369 10.7012 6.07467 9.77223 5.22231 8.72676C4.79946 8.20736 4.42322 7.65132 4.16019 7.02537C4.10692 6.89885 4.11691 6.81561 4.22012 6.7124C4.61634 6.3295 5.00256 5.93662 5.39212 5.54373C5.93483 4.99769 5.93483 4.35842 5.38879 3.80905C5.07914 3.49607 4.76949 3.18975 4.45985 2.87678C4.14021 2.55714 3.82391 2.23418 3.50094 1.91787C2.97821 1.40845 2.32562 1.40845 1.80621 1.9212C1.40667 2.31409 1.02377 2.71696 0.61757 3.10319C0.241333 3.45945 0.0515499 3.89561 0.0115955 4.40503C-0.0516656 5.23409 0.151436 6.01652 0.437775 6.77899C1.02377 8.35718 1.91609 9.75892 2.99818 11.0441C4.45985 12.7821 6.20452 14.1572 8.24552 15.1494C9.16447 15.5956 10.1167 15.9385 11.1522 15.9951C11.8647 16.0351 12.484 15.8553 12.9801 15.2993C13.3197 14.9197 13.7026 14.5734 14.0622 14.2105C14.5949 13.6711 14.5983 13.0185 14.0689 12.4858C13.4363 11.8499 12.8003 11.2173 12.1644 10.5846Z" fill="white"/>
<path d="M11.5284 7.93096L12.757 7.7212C12.5639 6.59249 12.0312 5.57032 11.2221 4.75792C10.3664 3.90223 9.2843 3.36284 8.09232 3.19637L7.91919 4.43162C8.84147 4.56147 9.68051 4.97766 10.3431 5.64024C10.969 6.26619 11.3786 7.05862 11.5284 7.93096Z" fill="white"/>
<path d="M13.4495 2.59037C12.0311 1.17199 10.2365 0.276351 8.25541 0L8.08228 1.23526C9.79365 1.47498 11.3452 2.25076 12.5705 3.4727C13.7325 4.63471 14.495 6.10303 14.7713 7.71785L15.9999 7.50809C15.6769 5.63689 14.7946 3.93883 13.4495 2.59037Z" fill="white"/>
</g>
<defs>
<clipPath id="clip0_37_1638">
<rect width="16" height="16.0004" fill="white"/>
</clipPath>
</defs>
</svg>
